<svg width="80" height="80" viewBox="0 0 80 80" fill="none" xmlns="http://www.w3.org/2000/svg">
<g clip-path="url(#clip0_1_509)">
<rect width="80" height="80" rx="20.27" fill="#4D6BFE" fill-opacity="0.1"/>
<g filter="url(#filter0_b_1_509)">
<rect width="80" height="80" rx="20.2667" fill="url(#paint0_radial_1_509)" fill-opacity="0.2"/>
<rect width="80" height="80" rx="20.2667" stroke="url(#paint1_linear_1_509)" stroke-width="1.06667"/>
</g>
<path fill-rule="evenodd" clip-rule="evenodd" d="M-14.5482 39.5714L-15.5584 38.9898L-14.9768 40L-15.5584 41.0102L-14.5482 40.4286L-13.5381 41.0102L-14.1197 40L-13.5381 38.9898L-14.5482 39.5714ZM3.63451 57.7542L2.62436 57.1726L3.20594 58.1827L2.62436 59.1929L3.63451 58.6113L4.64466 59.1929L4.06308 58.1827L4.64466 57.1726L3.63451 57.7542ZM20.8071 75.3553L21.8173 75.9369L22.8274 75.3553L22.2458 76.3655L22.8274 77.3756L21.8173 76.7941L20.8071 77.3756L21.3887 76.3655L20.8071 75.3553ZM40 94.1197L38.9898 93.5381L39.5714 94.5482L38.9899 95.5584L40 94.9768L41.0102 95.5584L40.4286 94.5482L41.0102 93.5381L40 94.1197ZM2.62436 20.8071L3.63451 21.3887L4.64466 20.8071L4.06308 21.8173L4.64466 22.8274L3.63451 22.2458L2.62436 22.8274L3.20594 21.8173L2.62436 20.8071ZM21.8173 39.5714L20.8071 38.9898L21.3887 40L20.8071 41.0102L21.8173 40.4286L22.8274 41.0102L22.2458 40L22.8274 38.9898L21.8173 39.5714ZM38.9898 57.1726L40 57.7542L41.0102 57.1726L40.4286 58.1827L41.0102 59.1929L40 58.6113L38.9898 59.1929L39.5714 58.1827L38.9898 57.1726ZM58.1827 75.9369L57.1726 75.3553L57.7542 76.3655L57.1726 77.3756L58.1827 76.7941L59.1929 77.3756L58.6113 76.3655L59.1929 75.3553L58.1827 75.9369ZM20.8071 2.62436L21.8173 3.20594L22.8274 2.62435L22.2458 3.63451L22.8274 4.64466L21.8173 4.06308L20.8071 4.64466L21.3887 3.63451L20.8071 2.62436ZM40 21.3887L38.9898 20.8071L39.5714 21.8173L38.9898 22.8274L40 22.2458L41.0102 22.8274L40.4286 21.8173L41.0102 20.8071L40 21.3887ZM57.1726 38.9898L58.1827 39.5714L59.1929 38.9898L58.6113 40L59.1929 41.0102L58.1827 40.4286L57.1726 41.0102L57.7542 40L57.1726 38.9898ZM76.3655 57.7542L75.3553 57.1726L75.9369 58.1827L75.3553 59.1929L76.3655 58.6113L77.3756 59.1929L76.7941 58.1827L77.3756 57.1726L76.3655 57.7542ZM38.9899 -15.5584L40 -14.9768L41.0102 -15.5584L40.4286 -14.5482L41.0102 -13.5381L40 -14.1197L38.9898 -13.5381L39.5714 -14.5482L38.9899 -15.5584ZM58.1827 3.20593L57.1726 2.62435L57.7542 3.63451L57.1726 4.64466L58.1827 4.06308L59.1929 4.64466L58.6113 3.6345L59.1929 2.62436L58.1827 3.20593ZM75.3553 20.8071L76.3655 21.3887L77.3756 20.8071L76.7941 21.8173L77.3756 22.8274L76.3655 22.2458L75.3553 22.8274L75.9369 21.8173L75.3553 20.8071ZM94.5482 39.5714L93.5381 38.9898L94.1197 40L93.5381 41.0102L94.5482 40.4286L95.5584 41.0101L94.9768 40L95.5584 38.9899L94.5482 39.5714Z" fill="url(#paint2_radial_1_509)"/>
<g opacity="0.72">
<path d="M39.2717 45.36H30.7517L28.4317 53H23.3517L31.9917 26.04H38.2717L47.0317 53H41.7117L39.2717 45.36ZM31.5517 41.64H38.4717L36.3517 35C35.8317 33.36 35.3917 31.52 34.9917 29.96H34.9117C34.5117 31.52 34.0717 33.4 33.6317 35L31.5517 41.64ZM50.7814 26.04H55.7014V53H50.7814V26.04Z" fill="#4D6BFE"/>
</g>
</g>
<defs>
<filter id="filter0_b_1_509" x="-13.3333" y="-13.3333" width="106.667" height="106.667" filterUnits="userSpaceOnUse" color-interpolation-filters="sRGB">
<feFlood flood-opacity="0" result="BackgroundImageFix"/>
<feGaussianBlur in="BackgroundImageFix" stdDeviation="6.4"/>
<feComposite in2="SourceAlpha" operator="in" result="effect1_backgroundBlur_1_509"/>
<feBlend mode="normal" in="SourceGraphic" in2="effect1_backgroundBlur_1_509" result="shape"/>
</filter>
<radialGradient id="paint0_radial_1_509" cx="0" cy="0" r="1" gradientUnits="userSpaceOnUse" gradientTransform="rotate(45) scale(113.137)">
<stop stop-color="#FAFAFA"/>
<stop offset="1" stop-color="#F7F7F7" stop-opacity="0"/>
</radialGradient>
<linearGradient id="paint1_linear_1_509" x1="-9.01101e-07" y1="78" x2="80" y2="9.81614e-07" gradientUnits="userSpaceOnUse">
<stop stop-color="white"/>
<stop offset="1" stop-color="white" stop-opacity="0"/>
</linearGradient>
<radialGradient id="paint2_radial_1_509" cx="0" cy="0" r="1" gradientUnits="userSpaceOnUse" gradientTransform="translate(40 40) rotate(45) scale(45)">
<stop stop-color="white" stop-opacity="0"/>
<stop offset="0.674" stop-color="#0057FF"/>
</radialGradient>
<clipPath id="clip0_1_509">
<rect width="80" height="80" rx="20.27" fill="white"/>
</clipPath>
</defs>
</svg>
