<svg width="60" height="60" viewBox="0 0 60 60" fill="none" xmlns="http://www.w3.org/2000/svg">
<rect x="1" y="1.28198" width="58" height="58" rx="14.6939" fill="#4D6BFE" fill-opacity="0.1"/>
<g filter="url(#filter0_b_1_1217)">
<rect x="1" y="1.28198" width="58" height="58" rx="14.6933" fill="url(#paint0_radial_1_1217)" fill-opacity="0.2"/>
<rect x="1" y="1.28198" width="58" height="58" rx="14.6933" stroke="url(#paint1_linear_1_1217)" stroke-width="0.773333"/>
</g>
<g opacity="0.8" clip-path="url(#clip0_1_1217)">
<path d="M33.4411 30.2823C34.416 30.2823 35.2063 29.492 35.2063 28.5171C35.2063 27.5423 34.416 26.752 33.4411 26.752C32.4662 26.752 31.6759 27.5423 31.6759 28.5171C31.6759 29.492 32.4662 30.2823 33.4411 30.2823Z" fill="url(#paint2_linear_1_1217)"/>
<path d="M29.6977 32.2613C29.7539 32.3155 29.7987 32.3805 29.8296 32.4522C29.8604 32.524 29.8766 32.6012 29.8773 32.6794C29.878 32.7575 29.8631 32.835 29.8335 32.9073C29.8039 32.9796 29.7602 33.0453 29.705 33.1005C29.6497 33.1558 29.5841 33.1995 29.5117 33.2291C29.4394 33.2586 29.3619 33.2735 29.2838 33.2729C29.2057 33.2722 29.1285 33.2559 29.0567 33.2251C28.9849 33.1943 28.92 33.1494 28.8657 33.0932C27.652 31.8794 26.9701 30.2332 26.9701 28.5167C26.9701 26.8002 27.652 25.1539 28.8657 23.9401C28.92 23.8839 28.9849 23.8391 29.0567 23.8083C29.1285 23.7774 29.2057 23.7612 29.2838 23.7605C29.3619 23.7598 29.4394 23.7747 29.5117 23.8043C29.5841 23.8339 29.6497 23.8776 29.705 23.9328C29.7602 23.9881 29.8039 24.0538 29.8335 24.1261C29.8631 24.1984 29.878 24.2759 29.8773 24.354C29.8766 24.4321 29.8604 24.5093 29.8296 24.5811C29.7987 24.6529 29.7539 24.7178 29.6977 24.7721C29.206 25.2639 28.8159 25.8476 28.5497 26.4901C28.2836 27.1326 28.1466 27.8213 28.1466 28.5167C28.1466 29.2121 28.2836 29.9007 28.5497 30.5432C28.8159 31.1857 29.206 31.7695 29.6977 32.2613ZM38.0188 33.0932C37.9078 33.2004 37.7592 33.2597 37.6049 33.2584C37.4507 33.2571 37.3031 33.1952 37.194 33.0861C37.0849 32.977 37.023 32.8294 37.0217 32.6751C37.0203 32.5209 37.0796 32.3722 37.1868 32.2613C37.6786 31.7695 38.0687 31.1857 38.3348 30.5432C38.6009 29.9007 38.7379 29.2121 38.7379 28.5167C38.7379 27.8213 38.6009 27.1326 38.3348 26.4901C38.0687 25.8476 37.6786 25.2639 37.1868 24.7721C37.1306 24.7178 37.0858 24.6529 37.055 24.5811C37.0241 24.5093 37.0079 24.4321 37.0072 24.354C37.0065 24.2759 37.0214 24.1984 37.051 24.1261C37.0806 24.0538 37.1243 23.9881 37.1795 23.9328C37.2348 23.8776 37.3005 23.8339 37.3728 23.8043C37.4451 23.7747 37.5226 23.7598 37.6007 23.7605C37.6788 23.7612 37.756 23.7774 37.8278 23.8083C37.8996 23.8391 37.9645 23.8839 38.0188 23.9401C39.2326 25.1539 39.9144 26.8002 39.9144 28.5167C39.9144 30.2332 39.2326 31.8794 38.0188 33.0932Z" fill="url(#paint3_linear_1_1217)"/>
<path d="M26.3806 43.8154H34.1763L34.0298 31.4002C34.7441 31.2543 35.3789 30.8485 35.811 30.2613C36.2431 29.674 36.4418 28.9473 36.3685 28.2219C36.2952 27.4965 35.9552 26.8242 35.4144 26.3353C34.8736 25.8463 34.1705 25.5756 33.4414 25.5756C32.7123 25.5756 32.0092 25.8463 31.4684 26.3353C30.9276 26.8242 30.5876 27.4965 30.5143 28.2219C30.441 28.9473 30.6397 29.674 31.0718 30.2613C31.5039 30.8485 32.1387 31.2543 32.853 31.4002V37.343C32.851 39.0589 32.1684 40.704 30.955 41.9174C29.7417 43.1308 28.0966 43.8133 26.3806 43.8154Z" fill="url(#paint4_linear_1_1217)"/>
<g filter="url(#filter1_bi_1_1217)">
<path d="M36.9722 43.8153C37.2843 43.8153 37.5837 43.6913 37.8044 43.4706C38.0251 43.25 38.149 42.9506 38.149 42.6385V37.9155C40.1561 36.4117 41.6297 34.3056 42.3547 31.9048C43.0797 29.504 43.018 26.9343 42.1787 24.571C41.3393 22.2078 39.7663 20.1748 37.6894 18.7692C35.6125 17.3635 33.1405 16.6587 30.6346 16.7578C24.2664 16.9979 19.3203 22.4329 19.3203 28.8059V29.5708L17.2456 34.2368C17.1228 34.5135 17.1113 34.8268 17.2136 35.1117C17.3158 35.3966 17.5239 35.6312 17.7946 35.7666L19.3203 36.5298V40.8733C19.3203 41.6536 19.6303 42.4019 20.182 42.9536C20.7337 43.5054 21.482 43.8153 22.2623 43.8153H36.9722Z" fill="white" fill-opacity="0.01"/>
<path d="M36.9722 43.8153C37.2843 43.8153 37.5837 43.6913 37.8044 43.4706C38.0251 43.25 38.149 42.9506 38.149 42.6385V37.9155C40.1561 36.4117 41.6297 34.3056 42.3547 31.9048C43.0797 29.504 43.018 26.9343 42.1787 24.571C41.3393 22.2078 39.7663 20.1748 37.6894 18.7692C35.6125 17.3635 33.1405 16.6587 30.6346 16.7578C24.2664 16.9979 19.3203 22.4329 19.3203 28.8059V29.5708L17.2456 34.2368C17.1228 34.5135 17.1113 34.8268 17.2136 35.1117C17.3158 35.3966 17.5239 35.6312 17.7946 35.7666L19.3203 36.5298V40.8733C19.3203 41.6536 19.6303 42.4019 20.182 42.9536C20.7337 43.5054 21.482 43.8153 22.2623 43.8153H36.9722Z" fill="url(#paint5_linear_1_1217)" fill-opacity="0.2"/>
<path d="M37.9799 37.8308L38.0476 37.7801C40.0258 36.298 41.4782 34.2222 42.1928 31.8559C42.9073 29.4897 42.8465 26.9569 42.0193 24.6277C41.192 22.2984 39.6416 20.2947 37.5946 18.9092C35.5476 17.5238 33.1112 16.8292 30.6413 16.9269L30.641 16.9269C24.369 17.1633 19.4895 22.5184 19.4895 28.8059V29.5708V29.6067L19.4749 29.6395L17.4002 34.3054L37.9799 37.8308ZM37.9799 37.8308V37.9155M37.9799 37.8308V37.9155M37.9799 37.9155V42.6385C37.9799 42.9058 37.8737 43.1621 37.6847 43.351C37.4958 43.54 37.2395 43.6462 36.9722 43.6462H22.2623C21.5269 43.6462 20.8216 43.354 20.3016 42.834C19.7816 42.314 19.4895 41.6087 19.4895 40.8733V36.5298V36.4253M37.9799 37.9155L19.4895 36.4253M19.4895 36.4253L19.396 36.3785M19.4895 36.4253L19.396 36.3785M19.396 36.3785L17.8703 35.6153C17.6385 35.4994 17.4603 35.2985 17.3728 35.0546C17.2853 34.8107 17.2951 34.5424 17.4002 34.3055L19.396 36.3785Z" stroke="url(#paint6_linear_1_1217)" stroke-opacity="0.1" stroke-width="0.338333"/>
</g>
<g filter="url(#filter2_i_1_1217)">
<path d="M29.6981 32.2611C29.7543 32.3153 29.7991 32.3803 29.8299 32.4521C29.8608 32.5238 29.877 32.6011 29.8777 32.6792C29.8784 32.7573 29.8635 32.8348 29.8339 32.9071C29.8043 32.9794 29.7606 33.0451 29.7054 33.1004C29.6501 33.1556 29.5844 33.1993 29.5121 33.2289C29.4398 33.2585 29.3623 33.2734 29.2842 33.2727C29.2061 33.272 29.1288 33.2558 29.0571 33.2249C28.9853 33.1941 28.9203 33.1493 28.8661 33.0931C27.6523 31.8793 26.9705 30.233 26.9705 28.5165C26.9705 26.8 27.6523 25.1537 28.8661 23.9399C28.9203 23.8837 28.9853 23.8389 29.0571 23.8081C29.1288 23.7772 29.2061 23.761 29.2842 23.7603C29.3623 23.7597 29.4398 23.7745 29.5121 23.8041C29.5844 23.8337 29.6501 23.8774 29.7054 23.9327C29.7606 23.9879 29.8043 24.0536 29.8339 24.1259C29.8635 24.1982 29.8784 24.2757 29.8777 24.3538C29.877 24.432 29.8608 24.5092 29.8299 24.5809C29.7991 24.6527 29.7543 24.7177 29.6981 24.7719C29.2063 25.2637 28.8162 25.8475 28.5501 26.49C28.284 27.1325 28.147 27.8211 28.147 28.5165C28.147 29.2119 28.284 29.9006 28.5501 30.5431C28.8162 31.1855 29.2063 31.7693 29.6981 32.2611ZM38.0192 33.0931C37.9082 33.2002 37.7596 33.2596 37.6053 33.2582C37.451 33.2569 37.3035 33.195 37.1944 33.0859C37.0853 32.9768 37.0234 32.8292 37.022 32.6749C37.0207 32.5207 37.08 32.372 37.1872 32.2611C37.6789 31.7693 38.069 31.1855 38.3351 30.5431C38.6013 29.9006 38.7383 29.2119 38.7383 28.5165C38.7383 27.8211 38.6013 27.1325 38.3351 26.49C38.069 25.8475 37.6789 25.2637 37.1872 24.7719C37.131 24.7177 37.0862 24.6527 37.0553 24.5809C37.0245 24.5092 37.0083 24.432 37.0076 24.3538C37.0069 24.2757 37.0218 24.1982 37.0514 24.1259C37.081 24.0536 37.1247 23.9879 37.1799 23.9327C37.2351 23.8774 37.3008 23.8337 37.3732 23.8041C37.4455 23.7745 37.5229 23.7597 37.6011 23.7603C37.6792 23.761 37.7564 23.7772 37.8282 23.8081C37.9 23.8389 37.9649 23.8837 38.0192 23.9399C39.2329 25.1537 39.9148 26.8 39.9148 28.5165C39.9148 30.233 39.2329 31.8793 38.0192 33.0931Z" fill="white" fill-opacity="0.4"/>
</g>
<g filter="url(#filter3_i_1_1217)">
<path d="M26.38 43.8155H34.1757L34.0292 31.4003C34.7435 31.2545 35.3783 30.8487 35.8104 30.2614C36.2425 29.6742 36.4411 28.9475 36.3679 28.2221C36.2946 27.4967 35.9546 26.8244 35.4138 26.3355C34.8729 25.8465 34.1698 25.5758 33.4408 25.5758C32.7117 25.5758 32.0086 25.8465 31.4678 26.3355C30.927 26.8244 30.587 27.4967 30.5137 28.2221C30.4404 28.9475 30.6391 29.6742 31.0712 30.2614C31.5033 30.8487 32.138 31.2545 32.8524 31.4003V37.3432C32.8504 39.0591 32.1678 40.7042 30.9544 41.9176C29.7411 43.131 28.096 43.8135 26.38 43.8155Z" fill="white" fill-opacity="0.4"/>
</g>
</g>
<defs>
<filter id="filter0_b_1_1217" x="-8.66672" y="-8.38468" width="77.3334" height="77.3333" filterUnits="userSpaceOnUse" color-interpolation-filters="sRGB">
<feFlood flood-opacity="0" result="BackgroundImageFix"/>
<feGaussianBlur in="BackgroundImageFix" stdDeviation="4.64"/>
<feComposite in2="SourceAlpha" operator="in" result="effect1_backgroundBlur_1_1217"/>
<feBlend mode="normal" in="SourceGraphic" in2="effect1_backgroundBlur_1_1217" result="shape"/>
</filter>
<filter id="filter1_bi_1_1217" x="10.3777" y="9.98199" width="39.2456" height="40.6" filterUnits="userSpaceOnUse" color-interpolation-filters="sRGB">
<feFlood flood-opacity="0" result="BackgroundImageFix"/>
<feGaussianBlur in="BackgroundImageFix" stdDeviation="3.38333"/>
<feComposite in2="SourceAlpha" operator="in" result="effect1_backgroundBlur_1_1217"/>
<feBlend mode="normal" in="SourceGraphic" in2="effect1_backgroundBlur_1_1217" result="shape"/>
<feColorMatrix in="SourceAlpha" type="matrix" values="0 0 0 0 0 0 0 0 0 0 0 0 0 0 0 0 0 0 127 0" result="hardAlpha"/>
<feOffset dy="1.12778"/>
<feGaussianBlur stdDeviation="1.69167"/>
<feComposite in2="hardAlpha" operator="arithmetic" k2="-1" k3="1"/>
<feColorMatrix type="matrix" values="0 0 0 0 1 0 0 0 0 1 0 0 0 0 1 0 0 0 0.4 0"/>
<feBlend mode="normal" in2="shape" result="effect2_innerShadow_1_1217"/>
</filter>
<filter id="filter2_i_1_1217" x="26.9705" y="23.7603" width="12.9443" height="11.7679" filterUnits="userSpaceOnUse" color-interpolation-filters="sRGB">
<feFlood flood-opacity="0" result="BackgroundImageFix"/>
<feBlend mode="normal" in="SourceGraphic" in2="BackgroundImageFix" result="shape"/>
<feColorMatrix in="SourceAlpha" type="matrix" values="0 0 0 0 0 0 0 0 0 0 0 0 0 0 0 0 0 0 127 0" result="hardAlpha"/>
<feOffset dy="2.25556"/>
<feGaussianBlur stdDeviation="1.12778"/>
<feComposite in2="hardAlpha" operator="arithmetic" k2="-1" k3="1"/>
<feColorMatrix type="matrix" values="0 0 0 0 1 0 0 0 0 1 0 0 0 0 1 0 0 0 0.1 0"/>
<feBlend mode="normal" in2="shape" result="effect1_innerShadow_1_1217"/>
</filter>
<filter id="filter3_i_1_1217" x="26.38" y="25.5758" width="10.0028" height="20.4953" filterUnits="userSpaceOnUse" color-interpolation-filters="sRGB">
<feFlood flood-opacity="0" result="BackgroundImageFix"/>
<feBlend mode="normal" in="SourceGraphic" in2="BackgroundImageFix" result="shape"/>
<feColorMatrix in="SourceAlpha" type="matrix" values="0 0 0 0 0 0 0 0 0 0 0 0 0 0 0 0 0 0 127 0" result="hardAlpha"/>
<feOffset dy="2.25556"/>
<feGaussianBlur stdDeviation="1.12778"/>
<feComposite in2="hardAlpha" operator="arithmetic" k2="-1" k3="1"/>
<feColorMatrix type="matrix" values="0 0 0 0 1 0 0 0 0 1 0 0 0 0 1 0 0 0 0.1 0"/>
<feBlend mode="normal" in2="shape" result="effect1_innerShadow_1_1217"/>
</filter>
<radialGradient id="paint0_radial_1_1217" cx="0" cy="0" r="1" gradientUnits="userSpaceOnUse" gradientTransform="translate(1 1.28198) rotate(45) scale(82.0244)">
<stop stop-color="#FAFAFA"/>
<stop offset="1" stop-color="#F7F7F7" stop-opacity="0"/>
</radialGradient>
<linearGradient id="paint1_linear_1_1217" x1="0.999999" y1="57.832" x2="59" y2="1.28198" gradientUnits="userSpaceOnUse">
<stop stop-color="white"/>
<stop offset="1" stop-color="white" stop-opacity="0"/>
</linearGradient>
<linearGradient id="paint2_linear_1_1217" x1="31.6759" y1="26.752" x2="35.8346" y2="27.8079" gradientUnits="userSpaceOnUse">
<stop stop-color="#D9E3F7"/>
<stop offset="0.703125" stop-color="#2339FF"/>
</linearGradient>
<linearGradient id="paint3_linear_1_1217" x1="26.9701" y1="23.7605" x2="41.4701" y2="28.7707" gradientUnits="userSpaceOnUse">
<stop stop-color="#D9E3F7"/>
<stop offset="0.703125" stop-color="#2339FF"/>
</linearGradient>
<linearGradient id="paint4_linear_1_1217" x1="26.3806" y1="25.5756" x2="38.6847" y2="27.289" gradientUnits="userSpaceOnUse">
<stop stop-color="#D9E3F7"/>
<stop offset="0.703125" stop-color="#2339FF"/>
</linearGradient>
<linearGradient id="paint5_linear_1_1217" x1="17.1444" y1="16.7487" x2="47.6128" y2="24.098" gradientUnits="userSpaceOnUse">
<stop stop-color="white"/>
<stop offset="0.0928433" stop-color="#0057FF"/>
</linearGradient>
<linearGradient id="paint6_linear_1_1217" x1="17.9479" y1="17.979" x2="42.8567" y2="17.979" gradientUnits="userSpaceOnUse">
<stop stop-color="white"/>
<stop offset="1" stop-color="#0057FF"/>
</linearGradient>
<clipPath id="clip0_1_1217">
<rect width="27.0667" height="27.0667" fill="white" transform="translate(16.4667 16.7487)"/>
</clipPath>
</defs>
</svg>
