<svg width="45" height="32" viewBox="0 0 45 32" fill="none" xmlns="http://www.w3.org/2000/svg">
<g clip-path="url(#clip0_1_501)">
<path d="M14.7062 31.4333C12.9382 30.8771 11.1332 30.4287 9.51338 29.4702C3.35181 25.8134 0.0712224 20.5033 0.585824 13.4129C1.07703 6.63233 6.38094 1.226 14.4021 2.00548C15.9687 2.18067 17.555 1.97383 19.0218 1.40307C20.3181 0.89881 21.6767 0.567771 23.1035 0.825673C23.3901 0.879564 23.7351 0.877639 23.817 1.2106C23.8988 1.54357 23.5226 1.59553 23.3374 1.73026C21.9145 2.80229 21.9164 4.061 23.3862 5.03873C25.3062 6.31669 26.8753 7.97381 28.4991 9.57319C29.4182 10.5169 30.481 11.313 31.649 11.9328C32.2923 12.2619 32.6237 12.1926 32.92 11.4247C33.2903 10.4624 33.148 9.9177 32.2981 9.26525C29.7154 7.28286 28.9006 3.51825 30.306 0.635133C30.4425 0.354135 30.5516 0 30.9512 0C31.3976 0 31.536 0.342587 31.6179 0.696722C31.9083 1.86498 32.6256 2.62137 33.7718 3.08136C34.3881 3.3026 34.9333 3.68243 35.3511 4.18154C35.7688 4.68065 36.0439 5.28091 36.1479 5.92021C37.4013 4.68267 38.8769 4.3805 40.4674 4.35548C41.4771 4.34393 42.2042 3.74151 42.8494 3.03517C43.1048 2.75417 43.3699 2.41736 43.824 2.67526C44.2139 2.89467 44.2919 3.2719 44.2451 3.66838C43.9371 6.23586 43.0502 8.47999 40.6097 9.83687C39.7957 10.2958 38.9018 10.6 37.9744 10.7338C37.4364 10.8107 37.2219 11.0398 37.1947 11.6018C36.9841 16.3595 35.376 20.5937 32.072 24.137C30.9278 25.3668 30.9161 25.3399 32.4619 25.9327C33.1246 26.1848 33.764 26.4928 34.4111 26.7815C34.801 26.9547 35.2142 27.1067 35.1557 27.6495C35.1332 27.891 35.0319 28.1187 34.867 28.2985C34.7022 28.4783 34.4827 28.6004 34.2415 28.6464C33.1767 28.9378 32.0661 29.0305 30.9668 28.9197C30.1325 28.837 29.271 28.7677 28.4932 28.4944C27.8675 28.2731 27.466 28.4001 27.0098 28.7542C25.3132 30.0941 23.2825 30.9584 21.1309 31.2563C21.0568 31.2659 20.9945 31.3679 20.936 31.4256L14.7062 31.4333ZM26.8812 27.8304C23.854 25.6767 21.8658 22.6993 19.8483 19.7469C18.2265 17.3757 16.3085 15.2952 13.8056 13.7939C11.0591 12.1445 8.12357 11.0686 4.82154 11.3554C3.43562 11.4786 3.32062 11.6441 3.44537 13.0472C3.81183 17.1371 5.33224 20.7631 8.25027 23.7136C9.72585 25.2129 11.3476 26.6236 13.6107 26.9451C14.291 27.0394 14.9284 27.0105 15.4118 26.5139C15.9634 25.9481 15.2851 25.5516 15.1136 25.082C14.8719 24.4411 14.2929 23.6982 14.8972 23.1574C15.5015 22.6165 16.2441 23.1881 16.8465 23.523C18.4089 24.4218 19.8952 25.4439 21.2907 26.5794C22.9495 27.8785 24.8325 28.0998 26.8812 27.8304ZM25.5791 15.7475C25.5265 17.7568 27.3334 19.0078 29.0332 18.1552C29.5244 17.9069 29.7134 17.6278 29.46 17.1005C28.8108 15.6734 27.8527 14.4042 26.6531 13.3821C25.9183 12.7739 25.0703 12.3601 24.0684 12.5853C23.6591 12.6776 23.2107 12.8797 23.2361 13.384C23.2595 13.8344 23.6981 13.8228 24.0489 13.8959C25.4037 14.1769 25.6161 14.4464 25.5791 15.7475ZM24.5226 15.224C24.431 14.9622 24.2692 14.712 23.9378 14.7543C23.873 14.7588 23.8099 14.7763 23.7521 14.8057C23.6944 14.8351 23.6434 14.8758 23.6022 14.9253C23.5609 14.9749 23.5304 15.0322 23.5123 15.0938C23.4943 15.1554 23.4892 15.22 23.4973 15.2836C23.5304 15.5993 23.7117 15.811 24.0821 15.7667C24.3608 15.7301 24.5089 15.5415 24.5226 15.224Z" fill="#4E6CFD"/>
</g>
<defs>
<clipPath id="clip0_1_501">
<rect width="43.7333" height="31.4333" fill="white" transform="translate(0.533203)"/>
</clipPath>
</defs>
</svg>
