<svg width="62" height="62" viewBox="0 0 62 62" fill="none" xmlns="http://www.w3.org/2000/svg">
<rect x="1" y="1" width="60" height="60" rx="15.2" fill="#4D6BFE" fill-opacity="0.1"/>
<g filter="url(#filter0_b_1_514)">
<rect x="1" y="1" width="60" height="60" rx="15.2" fill="url(#paint0_radial_1_514)" fill-opacity="0.2"/>
<rect x="1" y="1" width="60" height="60" rx="15.2" stroke="url(#paint1_linear_1_514)" stroke-width="0.8"/>
</g>
<g opacity="0.8">
<g filter="url(#filter1_bi_1_514)">
<path d="M26.4253 28.9827C26.3861 28.9113 26.3288 28.8515 26.2592 28.8091L22.4956 26.5091C22.4217 26.464 22.3369 26.4402 22.2505 26.4402C22.164 26.4402 22.0792 26.464 22.0054 26.5091L18.2417 28.8091C18.1721 28.8515 18.1148 28.9113 18.0756 28.9827L22.2505 31.5345L26.4253 28.9827Z" fill="url(#paint2_linear_1_514)"/>
<path d="M18.0756 28.9827C18.0368 29.0525 18.016 29.1314 18.0159 29.2113V33.388C18.0159 33.4686 18.0367 33.5478 18.0762 33.6181C18.1156 33.6884 18.1725 33.7473 18.2412 33.7893L22.0049 36.0894C22.0787 36.1345 22.1635 36.1584 22.25 36.1585L22.2505 31.5345L18.0756 28.9827Z" fill="url(#paint3_linear_1_514)"/>
<path d="M26.4253 28.9827C26.4641 29.0525 26.484 29.1314 26.4841 29.2113V33.388C26.4841 33.4686 26.4633 33.5478 26.4239 33.6181C26.3844 33.6884 26.3276 33.7473 26.2588 33.7893L22.4951 36.0894C22.4213 36.1345 22.3365 36.1584 22.25 36.1585L22.2505 31.5345L26.4253 28.9827Z" fill="url(#paint4_linear_1_514)"/>
</g>
<g filter="url(#filter2_bi_1_514)">
<path d="M26.4257 28.9827C26.3864 28.9113 26.3292 28.8515 26.2596 28.8091L22.4959 26.5091C22.4221 26.464 22.3373 26.4402 22.2508 26.4402C22.1643 26.4402 22.0795 26.464 22.0057 26.5091L18.2421 28.8091C18.1725 28.8515 18.1152 28.9113 18.076 28.9827L22.2508 31.5345L26.4257 28.9827Z" fill="url(#paint5_linear_1_514)"/>
<path d="M18.076 28.9827C18.0372 29.0525 18.0163 29.1314 18.0163 29.2113V33.388C18.0163 33.4686 18.0371 33.5478 18.0765 33.6181C18.116 33.6884 18.1728 33.7473 18.2416 33.7893L22.0053 36.0894C22.0791 36.1345 22.1639 36.1584 22.2504 36.1585L22.2508 31.5345L18.076 28.9827Z" fill="url(#paint6_linear_1_514)"/>
<path d="M26.4257 28.9827C26.4645 29.0525 26.4844 29.1314 26.4845 29.2113V33.388C26.4844 33.4686 26.4637 33.5478 26.4242 33.6181C26.3848 33.6884 26.3279 33.7473 26.2591 33.7893L22.4955 36.0894C22.4217 36.1345 22.3369 36.1584 22.2504 36.1585L22.2508 31.5345L26.4257 28.9827Z" fill="url(#paint7_linear_1_514)"/>
</g>
<g filter="url(#filter3_bi_1_514)">
<path d="M35.1757 23.3716C35.1364 23.3002 35.0792 23.2403 35.0096 23.198L31.2459 20.8979C31.1721 20.8529 31.0873 20.829 31.0008 20.829C30.9143 20.829 30.8295 20.8529 30.7557 20.8979L26.9921 23.198C26.9225 23.2403 26.8652 23.3002 26.826 23.3716L31.0008 25.9233L35.1757 23.3716Z" fill="url(#paint8_linear_1_514)"/>
<path d="M26.826 23.3716C26.7872 23.4414 26.7663 23.5203 26.7663 23.6002V27.7769C26.7663 27.8575 26.7871 27.9367 26.8265 28.0069C26.866 28.0772 26.9228 28.1362 26.9916 28.1782L30.7553 30.4782C30.8291 30.5234 30.9139 30.5473 31.0004 30.5474L31.0008 25.9233L26.826 23.3716Z" fill="url(#paint9_linear_1_514)"/>
<path d="M35.1757 23.3716C35.2145 23.4414 35.2344 23.5203 35.2345 23.6002V27.7769C35.2344 27.8575 35.2137 27.9367 35.1742 28.0069C35.1348 28.0772 35.0779 28.1362 35.0091 28.1782L31.2455 30.4782C31.1717 30.5234 31.0869 30.5473 31.0004 30.5474L31.0008 25.9233L35.1757 23.3716Z" fill="url(#paint10_linear_1_514)"/>
</g>
<g filter="url(#filter4_bi_1_514)">
<path d="M43.9257 28.9826C43.8865 28.9112 43.8292 28.8513 43.7596 28.809L39.996 26.5089C39.9221 26.4638 39.8373 26.44 39.7509 26.44C39.6644 26.44 39.5796 26.4638 39.5057 26.5089L35.7421 28.809C35.6725 28.8513 35.6152 28.9112 35.576 28.9826L39.7509 31.5343L43.9257 28.9826Z" fill="url(#paint11_linear_1_514)"/>
<path d="M35.576 28.9826C35.5372 29.0523 35.5164 29.1313 35.5163 29.2111V33.3878C35.5163 33.4684 35.5371 33.5476 35.5765 33.6179C35.616 33.6882 35.6729 33.7471 35.7416 33.7891L39.5053 36.0892C39.5791 36.1343 39.6639 36.1583 39.7504 36.1583L39.7509 31.5343L35.576 28.9826Z" fill="url(#paint12_linear_1_514)"/>
<path d="M43.9257 28.9826C43.9645 29.0523 43.9844 29.1313 43.9845 29.2111V33.3878C43.9845 33.4684 43.9637 33.5476 43.9243 33.6179C43.8848 33.6882 43.828 33.7471 43.7592 33.7891L39.9955 36.0892C39.9217 36.1343 39.8369 36.1583 39.7504 36.1583L39.7509 31.5343L43.9257 28.9826Z" fill="url(#paint13_linear_1_514)"/>
</g>
<g filter="url(#filter5_bi_1_514)">
<path d="M35.1755 35.4179C35.1363 35.3465 35.079 35.2867 35.0094 35.2443L31.2458 32.9443C31.1719 32.8992 31.0871 32.8754 31.0006 32.8754C30.9142 32.8754 30.8294 32.8992 30.7555 32.9443L26.9919 35.2443C26.9223 35.2867 26.865 35.3465 26.8258 35.4179L31.0006 37.9697L35.1755 35.4179Z" fill="url(#paint14_linear_1_514)"/>
<path d="M26.8258 35.4179C26.787 35.4877 26.7662 35.5666 26.7661 35.6465V39.8232C26.7661 39.9038 26.7869 39.983 26.8263 40.0533C26.8658 40.1235 26.9226 40.1825 26.9914 40.2245L30.7551 42.5245C30.8289 42.5697 30.9137 42.5936 31.0002 42.5937L31.0006 37.9697L26.8258 35.4179Z" fill="url(#paint15_linear_1_514)"/>
<path d="M35.1755 35.4179C35.2143 35.4877 35.2342 35.5666 35.2343 35.6465V39.8232C35.2343 39.9038 35.2135 39.983 35.1741 40.0533C35.1346 40.1235 35.0777 40.1825 35.009 40.2245L31.2453 42.5245C31.1715 42.5697 31.0867 42.5936 31.0002 42.5937L31.0006 37.9697L35.1755 35.4179Z" fill="url(#paint16_linear_1_514)"/>
</g>
<g filter="url(#filter6_bi_1_514)">
<path d="M36.1765 23.0696C36.1279 22.9811 36.0569 22.9068 35.9706 22.8543L31.3039 20.0024C31.2124 19.9465 31.1072 19.917 31 19.917C30.8928 19.917 30.7876 19.9465 30.6961 20.0024L26.0294 22.8543C25.9431 22.9068 25.8721 22.9811 25.8235 23.0696L31 26.233L36.1765 23.0696Z" fill="url(#paint17_linear_1_514)" fill-opacity="0.2"/>
<path d="M30.6961 20.0024L26.0294 22.8543C25.9937 22.876 25.9607 22.9014 25.9308 22.93L26.0877 23.026M30.6961 20.0024L30.7872 20.1518M30.6961 20.0024C30.7876 19.9465 30.8928 19.917 31 19.917C31.1072 19.917 31.2124 19.9465 31.3039 20.0024M30.6961 20.0024L30.7873 20.1517L30.7872 20.1518M30.7872 20.1518L26.1207 23.0037L26.1204 23.0038C26.1091 23.0107 26.0982 23.0181 26.0877 23.026M30.7872 20.1518C30.8513 20.1127 30.9249 20.092 31 20.092C31.075 20.092 31.1487 20.1127 31.2127 20.1518M26.0877 23.026L31 26.0279M26.0877 23.026C26.0422 23.0602 26.0044 23.1037 25.9769 23.1538L25.8235 23.0696M25.8235 23.0696C25.8321 23.054 25.8413 23.0388 25.8513 23.0241L25.8235 23.0696ZM25.8235 23.0696L31 26.233M31 26.233L36.1765 23.0696M31 26.233L31.0912 26.0837L31 26.0279M31 26.233L30.9087 26.0837L31 26.0279M36.1765 23.0696C36.1679 23.054 36.1586 23.0388 36.1487 23.0241L36.1765 23.0696ZM36.1765 23.0696L36.0231 23.1538C35.9956 23.1037 35.9577 23.0602 35.9123 23.026M35.9123 23.026L36.0692 22.93C36.0393 22.9014 36.0062 22.876 35.9706 22.8543L31.3039 20.0024M35.9123 23.026C35.9018 23.0181 35.8909 23.0107 35.8796 23.0038L35.8793 23.0037L31.2127 20.1518M35.9123 23.026L31 26.0279M31.3039 20.0024L31.2126 20.1517L31.2127 20.1518M31.3039 20.0024L31.2127 20.1518" stroke="url(#paint18_linear_1_514)" stroke-opacity="0.1" stroke-width="0.35"/>
</g>
<g filter="url(#filter7_bi_1_514)">
<path d="M25.8235 23.0695C25.7755 23.1559 25.7502 23.253 25.75 23.3519V28.5307C25.7501 28.6306 25.7758 28.7288 25.8247 28.816C25.8736 28.9031 25.9441 28.9762 26.0294 29.0283L30.6961 31.8802C30.7876 31.9362 30.8927 31.9658 31 31.9659V26.2329L25.8235 23.0695Z" fill="url(#paint19_linear_1_514)" fill-opacity="0.2"/>
<path d="M25.925 23.352C25.925 23.347 25.9251 23.3419 25.9253 23.3368L30.825 26.3311V31.7513C30.8122 31.7452 30.7996 31.7384 30.7874 31.7309L30.7873 31.7309L26.1207 28.8789L26.1206 28.8789C26.0609 28.8425 26.0115 28.7913 25.9773 28.7303C25.9431 28.6693 25.9251 28.6006 25.925 28.5307L25.925 28.5306L25.925 23.352Z" stroke="url(#paint20_linear_1_514)" stroke-opacity="0.1" stroke-width="0.35"/>
</g>
<g filter="url(#filter8_bi_1_514)">
<path d="M36.1765 23.0695C36.2245 23.1559 36.2498 23.253 36.25 23.3519V28.5307C36.2499 28.6306 36.2242 28.7288 36.1753 28.816C36.1264 28.9031 36.0559 28.9762 35.9706 29.0283L31.3039 31.8802C31.2124 31.9362 31.1073 31.9658 31 31.9659V26.2329L36.1765 23.0695Z" fill="url(#paint21_linear_1_514)" fill-opacity="0.2"/>
<path d="M35.8794 28.8789L35.8793 28.8789L31.2127 31.7309L31.2126 31.7309C31.2004 31.7384 31.1878 31.7452 31.175 31.7513V26.3311L36.0747 23.3368C36.0749 23.3419 36.075 23.3469 36.075 23.352C36.075 23.352 36.075 23.3521 36.075 23.3522L36.075 28.5306C36.075 28.6005 36.057 28.6693 36.0227 28.7303C35.9885 28.7913 35.9391 28.8425 35.8794 28.8789Z" stroke="url(#paint22_linear_1_514)" stroke-opacity="0.1" stroke-width="0.35"/>
</g>
<g filter="url(#filter9_bi_1_514)">
<path d="M44.9265 28.4267C44.8779 28.3382 44.8069 28.264 44.7206 28.2115L40.0539 25.3595C39.9624 25.3037 39.8572 25.2741 39.75 25.2741C39.6428 25.2741 39.5376 25.3037 39.4461 25.3595L34.7794 28.2115C34.6931 28.264 34.6221 28.3382 34.5735 28.4267L39.75 31.5907L44.9265 28.4267Z" fill="url(#paint23_linear_1_514)" fill-opacity="0.2"/>
<path d="M39.75 25.4491C39.825 25.4491 39.8987 25.4698 39.9627 25.5089L44.6293 28.3608L44.6296 28.3609C44.6409 28.3678 44.6518 28.3752 44.6623 28.3831L39.75 31.3856L34.8377 28.3831C34.8482 28.3752 34.8591 28.3678 34.8704 28.3609L34.8707 28.3608L39.5372 25.5089C39.6013 25.4698 39.6749 25.4491 39.75 25.4491Z" stroke="url(#paint24_linear_1_514)" stroke-opacity="0.1" stroke-width="0.35"/>
</g>
<g filter="url(#filter10_bi_1_514)">
<path d="M34.5735 28.4272C34.5254 28.5137 34.5001 28.6111 34.5 28.7101V33.8889C34.5001 33.9889 34.5258 34.0871 34.5747 34.1742C34.6236 34.2614 34.6941 34.3345 34.7794 34.3865L39.4461 37.2384C39.5376 37.2944 39.6427 37.3241 39.75 37.3242V31.5912L34.5735 28.4272Z" fill="url(#paint25_linear_1_514)" fill-opacity="0.2"/>
<path d="M34.675 28.7102C34.675 28.705 34.6751 28.6997 34.6753 28.6945L39.575 31.6893V37.1095C39.5622 37.1034 39.5496 37.0966 39.5374 37.0892L39.5373 37.0891L34.8707 34.2372L34.8706 34.2371C34.8109 34.2007 34.7615 34.1495 34.7273 34.0885C34.6931 34.0276 34.6751 33.9589 34.675 33.8889L34.675 33.8888L34.675 28.7102Z" stroke="url(#paint26_linear_1_514)" stroke-opacity="0.1" stroke-width="0.35"/>
</g>
<g filter="url(#filter11_bi_1_514)">
<path d="M44.9265 28.4272C44.9746 28.5137 44.9999 28.6111 45 28.7101V33.8889C44.9999 33.9889 44.9742 34.0871 44.9253 34.1742C44.8764 34.2614 44.8059 34.3345 44.7206 34.3865L40.0539 37.2384C39.9624 37.2944 39.8573 37.3241 39.75 37.3242V31.5912L44.9265 28.4272Z" fill="url(#paint27_linear_1_514)" fill-opacity="0.2"/>
<path d="M44.6293 34.2372L44.6294 34.2371C44.6891 34.2007 44.7385 34.1495 44.7727 34.0885C44.807 34.0276 44.825 33.9588 44.825 33.8888L44.825 28.7103L44.825 28.7101M44.6293 34.2372L44.9883 28.5945C44.996 28.6324 45 28.6711 45 28.7101H44.825M44.6293 34.2372L39.9627 37.0891L39.9626 37.0892C39.9504 37.0966 39.9378 37.1034 39.925 37.1095V31.6893L44.8247 28.6945M44.6293 34.2372L44.8247 28.6945M44.825 28.7101C44.825 28.7049 44.8249 28.6997 44.8247 28.6945M44.825 28.7101L44.8247 28.6945" stroke="url(#paint28_linear_1_514)" stroke-opacity="0.1" stroke-width="0.35"/>
</g>
<g filter="url(#filter12_bi_1_514)">
<path d="M27.4265 28.4267C27.3779 28.3382 27.3069 28.264 27.2206 28.2115L22.5539 25.3595C22.4624 25.3037 22.3572 25.2741 22.25 25.2741C22.1428 25.2741 22.0376 25.3037 21.9461 25.3595L17.2794 28.2115C17.1931 28.264 17.1221 28.3382 17.0735 28.4267L22.25 31.5907L27.4265 28.4267Z" fill="url(#paint29_linear_1_514)" fill-opacity="0.2"/>
<path d="M21.9461 25.3595L17.2794 28.2115C17.2437 28.2332 17.2107 28.2586 17.1807 28.2872L17.3377 28.3831M21.9461 25.3595L22.0372 25.5089M21.9461 25.3595C22.0376 25.3037 22.1428 25.2741 22.25 25.2741C22.3572 25.2741 22.4624 25.3037 22.5539 25.3595L27.2206 28.2115C27.2562 28.2332 27.2893 28.2586 27.3192 28.2872L27.1623 28.3831M21.9461 25.3595L22.0373 25.5089L22.0372 25.5089M22.0372 25.5089L17.3707 28.3608L17.3704 28.3609C17.3591 28.3678 17.3482 28.3752 17.3377 28.3831M22.0372 25.5089C22.1013 25.4698 22.1749 25.4491 22.25 25.4491C22.325 25.4491 22.3987 25.4698 22.4627 25.5089M17.3377 28.3831L22.25 31.3856M17.3377 28.3831C17.2922 28.4173 17.2544 28.4608 17.2269 28.511L17.0735 28.4267M17.0735 28.4267C17.0821 28.4111 17.0914 28.3959 17.1013 28.3811L17.0735 28.4267ZM17.0735 28.4267L22.25 31.5907M22.25 31.5907L27.4265 28.4267M22.25 31.5907L22.3413 31.4414L22.25 31.3856M22.25 31.5907L22.1587 31.4414L22.25 31.3856M27.4265 28.4267C27.4179 28.4111 27.4086 28.3959 27.3986 28.3811L27.4265 28.4267ZM27.4265 28.4267L27.2731 28.511C27.2456 28.4608 27.2077 28.4173 27.1623 28.3831M27.1623 28.3831C27.1518 28.3752 27.1409 28.3678 27.1296 28.3609L27.1293 28.3608L22.4627 25.5089M27.1623 28.3831L22.25 31.3856M22.4627 25.5089L22.4626 25.5089L22.5539 25.3595L22.4627 25.5089Z" stroke="url(#paint30_linear_1_514)" stroke-opacity="0.1" stroke-width="0.35"/>
</g>
<g filter="url(#filter13_bi_1_514)">
<path d="M17.0735 28.4272C17.0254 28.5137 17.0001 28.6111 17 28.7101V33.8889C17.0001 33.9889 17.0258 34.0871 17.0747 34.1742C17.1236 34.2614 17.1941 34.3345 17.2794 34.3865L21.9461 37.2384C22.0376 37.2944 22.1427 37.3241 22.25 37.3242V31.5912L17.0735 28.4272Z" fill="url(#paint31_linear_1_514)" fill-opacity="0.2"/>
<path d="M17.175 28.7102C17.175 28.705 17.1751 28.6997 17.1753 28.6945L22.075 31.6893V37.1095C22.0622 37.1034 22.0496 37.0966 22.0374 37.0892L22.0373 37.0891L17.3707 34.2372L17.3706 34.2371C17.3109 34.2007 17.2615 34.1495 17.2273 34.0885C17.1931 34.0276 17.1751 33.9588 17.175 33.8889L17.175 33.8888L17.175 28.7102Z" stroke="url(#paint32_linear_1_514)" stroke-opacity="0.1" stroke-width="0.35"/>
</g>
<g filter="url(#filter14_bi_1_514)">
<path d="M27.4265 28.4272C27.4746 28.5137 27.4999 28.6111 27.5 28.7101V33.8889C27.4999 33.9889 27.4742 34.0871 27.4253 34.1742C27.3764 34.2614 27.3059 34.3345 27.2206 34.3865L22.5539 37.2384C22.4624 37.2944 22.3573 37.3241 22.25 37.3242V31.5912L27.4265 28.4272Z" fill="url(#paint33_linear_1_514)" fill-opacity="0.2"/>
<path d="M27.1293 34.2372L27.1294 34.2371C27.1891 34.2007 27.2385 34.1495 27.2727 34.0885C27.307 34.0276 27.325 33.9588 27.325 33.8888L27.325 28.7103L27.325 28.7101M27.1293 34.2372L27.4883 28.5945C27.496 28.6324 27.5 28.6711 27.5 28.7101H27.325M27.1293 34.2372L22.4627 37.0891L22.4626 37.0892C22.4504 37.0966 22.4378 37.1034 22.425 37.1095V31.6893L27.3247 28.6945M27.1293 34.2372L27.3247 28.6945M27.325 28.7101C27.325 28.7049 27.3249 28.6997 27.3247 28.6945M27.325 28.7101L27.3247 28.6945" stroke="url(#paint34_linear_1_514)" stroke-opacity="0.1" stroke-width="0.35"/>
</g>
<g filter="url(#filter15_bi_1_514)">
<path d="M36.1765 34.2532C36.1279 34.1647 36.0569 34.0904 35.9706 34.0379L31.3039 31.186C31.2124 31.1301 31.1072 31.1006 31 31.1006C30.8928 31.1006 30.7876 31.1301 30.6961 31.186L26.0294 34.0379C25.9431 34.0904 25.8721 34.1647 25.8235 34.2532L31 37.4166L36.1765 34.2532Z" fill="url(#paint35_linear_1_514)" fill-opacity="0.2"/>
<path d="M30.6961 31.186L26.0294 34.0379C25.9937 34.0596 25.9607 34.085 25.9308 34.1136L26.0877 34.2096M30.6961 31.186L30.7872 31.3354M30.6961 31.186C30.7876 31.1301 30.8928 31.1006 31 31.1006C31.1072 31.1006 31.2124 31.1301 31.3039 31.186L35.9706 34.0379C36.0062 34.0596 36.0393 34.085 36.0692 34.1136L35.9123 34.2096M30.6961 31.186L30.7873 31.3353L30.7872 31.3354M30.7872 31.3354L26.1207 34.1873L26.1204 34.1874C26.1091 34.1943 26.0982 34.2017 26.0877 34.2096M30.7872 31.3354C30.8513 31.2963 30.9249 31.2756 31 31.2756C31.075 31.2756 31.1487 31.2963 31.2127 31.3354M26.0877 34.2096L31 37.2115M26.0877 34.2096C26.0422 34.2438 26.0044 34.2873 25.9769 34.3374L25.8235 34.2532M25.8235 34.2532C25.8321 34.2376 25.8413 34.2224 25.8513 34.2077L25.8235 34.2532ZM25.8235 34.2532L31 37.4166M31 37.4166L36.1765 34.2532M31 37.4166L31.0912 37.2673L31 37.2115M31 37.4166L30.9087 37.2673L31 37.2115M36.1765 34.2532C36.1679 34.2376 36.1586 34.2224 36.1487 34.2077L36.1765 34.2532ZM36.1765 34.2532L36.0231 34.3374C35.9956 34.2873 35.9577 34.2438 35.9123 34.2096M35.9123 34.2096C35.9018 34.2017 35.8909 34.1943 35.8796 34.1874L35.8793 34.1873L31.2127 31.3354M35.9123 34.2096L31 37.2115M31.2127 31.3354L31.2126 31.3353L31.3039 31.186L31.2127 31.3354Z" stroke="url(#paint36_linear_1_514)" stroke-opacity="0.1" stroke-width="0.35"/>
</g>
<g filter="url(#filter16_bi_1_514)">
<path d="M25.8235 34.2531C25.7755 34.3395 25.7502 34.4366 25.75 34.5354V39.7143C25.7501 39.8142 25.7758 39.9124 25.8247 39.9996C25.8736 40.0867 25.9441 40.1598 26.0294 40.2119L30.6961 43.0638C30.7876 43.1198 30.8927 43.1494 31 43.1495V37.4165L25.8235 34.2531Z" fill="url(#paint37_linear_1_514)" fill-opacity="0.2"/>
<path d="M25.925 34.5356C25.925 34.5306 25.9251 34.5255 25.9253 34.5204L30.825 37.5147V42.9349C30.8122 42.9288 30.7996 42.922 30.7874 42.9145L30.7873 42.9145L26.1207 40.0625L26.1206 40.0625C26.0609 40.026 26.0115 39.9749 25.9773 39.9139C25.9431 39.8529 25.9251 39.7842 25.925 39.7143L25.925 39.7142L25.925 34.5356Z" stroke="url(#paint38_linear_1_514)" stroke-opacity="0.1" stroke-width="0.35"/>
</g>
<g filter="url(#filter17_bi_1_514)">
<path d="M36.1765 34.2531C36.2245 34.3395 36.2498 34.4366 36.25 34.5354V39.7143C36.2499 39.8142 36.2242 39.9124 36.1753 39.9996C36.1264 40.0867 36.0559 40.1598 35.9706 40.2119L31.3039 43.0638C31.2124 43.1198 31.1073 43.1494 31 43.1495V37.4165L36.1765 34.2531Z" fill="url(#paint39_linear_1_514)" fill-opacity="0.2"/>
<path d="M35.8794 40.0625L35.8793 40.0625L31.2127 42.9145L31.2126 42.9145C31.2004 42.922 31.1878 42.9288 31.175 42.9349V37.5147L36.0747 34.5204C36.0749 34.5255 36.075 34.5305 36.075 34.5356C36.075 34.5356 36.075 34.5357 36.075 34.5358L36.075 39.7142C36.075 39.7841 36.057 39.8529 36.0227 39.9139C35.9885 39.9749 35.9391 40.026 35.8794 40.0625Z" stroke="url(#paint40_linear_1_514)" stroke-opacity="0.1" stroke-width="0.35"/>
</g>
</g>
<defs>
<filter id="filter0_b_1_514" x="-8.99999" y="-9.00002" width="80" height="80" filterUnits="userSpaceOnUse" color-interpolation-filters="sRGB">
<feFlood flood-opacity="0" result="BackgroundImageFix"/>
<feGaussianBlur in="BackgroundImageFix" stdDeviation="4.8"/>
<feComposite in2="SourceAlpha" operator="in" result="effect1_backgroundBlur_1_514"/>
<feBlend mode="normal" in="SourceGraphic" in2="effect1_backgroundBlur_1_514" result="shape"/>
</filter>
<filter id="filter1_bi_1_514" x="15.1932" y="23.6174" width="14.1137" height="15.3638" filterUnits="userSpaceOnUse" color-interpolation-filters="sRGB">
<feFlood flood-opacity="0" result="BackgroundImageFix"/>
<feGaussianBlur in="BackgroundImageFix" stdDeviation="1.41137"/>
<feComposite in2="SourceAlpha" operator="in" result="effect1_backgroundBlur_1_514"/>
<feBlend mode="normal" in="SourceGraphic" in2="effect1_backgroundBlur_1_514" result="shape"/>
<feColorMatrix in="SourceAlpha" type="matrix" values="0 0 0 0 0 0 0 0 0 0 0 0 0 0 0 0 0 0 127 0" result="hardAlpha"/>
<feOffset dy="0.470456"/>
<feGaussianBlur stdDeviation="0.940913"/>
<feComposite in2="hardAlpha" operator="arithmetic" k2="-1" k3="1"/>
<feColorMatrix type="matrix" values="0 0 0 0 1 0 0 0 0 1 0 0 0 0 1 0 0 0 0.4 0"/>
<feBlend mode="normal" in2="shape" result="effect2_innerShadow_1_514"/>
</filter>
<filter id="filter2_bi_1_514" x="15.1935" y="23.6174" width="14.1137" height="15.3638" filterUnits="userSpaceOnUse" color-interpolation-filters="sRGB">
<feFlood flood-opacity="0" result="BackgroundImageFix"/>
<feGaussianBlur in="BackgroundImageFix" stdDeviation="1.41137"/>
<feComposite in2="SourceAlpha" operator="in" result="effect1_backgroundBlur_1_514"/>
<feBlend mode="normal" in="SourceGraphic" in2="effect1_backgroundBlur_1_514" result="shape"/>
<feColorMatrix in="SourceAlpha" type="matrix" values="0 0 0 0 0 0 0 0 0 0 0 0 0 0 0 0 0 0 127 0" result="hardAlpha"/>
<feOffset dy="0.470456"/>
<feGaussianBlur stdDeviation="0.940913"/>
<feComposite in2="hardAlpha" operator="arithmetic" k2="-1" k3="1"/>
<feColorMatrix type="matrix" values="0 0 0 0 1 0 0 0 0 1 0 0 0 0 1 0 0 0 0.4 0"/>
<feBlend mode="normal" in2="shape" result="effect2_innerShadow_1_514"/>
</filter>
<filter id="filter3_bi_1_514" x="23.9435" y="18.0063" width="14.1137" height="15.3638" filterUnits="userSpaceOnUse" color-interpolation-filters="sRGB">
<feFlood flood-opacity="0" result="BackgroundImageFix"/>
<feGaussianBlur in="BackgroundImageFix" stdDeviation="1.41137"/>
<feComposite in2="SourceAlpha" operator="in" result="effect1_backgroundBlur_1_514"/>
<feBlend mode="normal" in="SourceGraphic" in2="effect1_backgroundBlur_1_514" result="shape"/>
<feColorMatrix in="SourceAlpha" type="matrix" values="0 0 0 0 0 0 0 0 0 0 0 0 0 0 0 0 0 0 127 0" result="hardAlpha"/>
<feOffset dy="0.470456"/>
<feGaussianBlur stdDeviation="0.940913"/>
<feComposite in2="hardAlpha" operator="arithmetic" k2="-1" k3="1"/>
<feColorMatrix type="matrix" values="0 0 0 0 1 0 0 0 0 1 0 0 0 0 1 0 0 0 0.4 0"/>
<feBlend mode="normal" in2="shape" result="effect2_innerShadow_1_514"/>
</filter>
<filter id="filter4_bi_1_514" x="32.6936" y="23.6173" width="14.1137" height="15.3638" filterUnits="userSpaceOnUse" color-interpolation-filters="sRGB">
<feFlood flood-opacity="0" result="BackgroundImageFix"/>
<feGaussianBlur in="BackgroundImageFix" stdDeviation="1.41137"/>
<feComposite in2="SourceAlpha" operator="in" result="effect1_backgroundBlur_1_514"/>
<feBlend mode="normal" in="SourceGraphic" in2="effect1_backgroundBlur_1_514" result="shape"/>
<feColorMatrix in="SourceAlpha" type="matrix" values="0 0 0 0 0 0 0 0 0 0 0 0 0 0 0 0 0 0 127 0" result="hardAlpha"/>
<feOffset dy="0.470456"/>
<feGaussianBlur stdDeviation="0.940913"/>
<feComposite in2="hardAlpha" operator="arithmetic" k2="-1" k3="1"/>
<feColorMatrix type="matrix" values="0 0 0 0 1 0 0 0 0 1 0 0 0 0 1 0 0 0 0.4 0"/>
<feBlend mode="normal" in2="shape" result="effect2_innerShadow_1_514"/>
</filter>
<filter id="filter5_bi_1_514" x="23.9433" y="30.0526" width="14.1137" height="15.3638" filterUnits="userSpaceOnUse" color-interpolation-filters="sRGB">
<feFlood flood-opacity="0" result="BackgroundImageFix"/>
<feGaussianBlur in="BackgroundImageFix" stdDeviation="1.41137"/>
<feComposite in2="SourceAlpha" operator="in" result="effect1_backgroundBlur_1_514"/>
<feBlend mode="normal" in="SourceGraphic" in2="effect1_backgroundBlur_1_514" result="shape"/>
<feColorMatrix in="SourceAlpha" type="matrix" values="0 0 0 0 0 0 0 0 0 0 0 0 0 0 0 0 0 0 127 0" result="hardAlpha"/>
<feOffset dy="0.470456"/>
<feGaussianBlur stdDeviation="0.940913"/>
<feComposite in2="hardAlpha" operator="arithmetic" k2="-1" k3="1"/>
<feColorMatrix type="matrix" values="0 0 0 0 1 0 0 0 0 1 0 0 0 0 1 0 0 0 0.4 0"/>
<feBlend mode="normal" in2="shape" result="effect2_innerShadow_1_514"/>
</filter>
<filter id="filter6_bi_1_514" x="18.8235" y="12.917" width="24.353" height="20.316" filterUnits="userSpaceOnUse" color-interpolation-filters="sRGB">
<feFlood flood-opacity="0" result="BackgroundImageFix"/>
<feGaussianBlur in="BackgroundImageFix" stdDeviation="3.5"/>
<feComposite in2="SourceAlpha" operator="in" result="effect1_backgroundBlur_1_514"/>
<feBlend mode="normal" in="SourceGraphic" in2="effect1_backgroundBlur_1_514" result="shape"/>
<feColorMatrix in="SourceAlpha" type="matrix" values="0 0 0 0 0 0 0 0 0 0 0 0 0 0 0 0 0 0 127 0" result="hardAlpha"/>
<feOffset dy="1.16667"/>
<feGaussianBlur stdDeviation="1.75"/>
<feComposite in2="hardAlpha" operator="arithmetic" k2="-1" k3="1"/>
<feColorMatrix type="matrix" values="0 0 0 0 1 0 0 0 0 1 0 0 0 0 1 0 0 0 0.4 0"/>
<feBlend mode="normal" in2="shape" result="effect2_innerShadow_1_514"/>
</filter>
<filter id="filter7_bi_1_514" x="18.75" y="16.0695" width="19.25" height="22.8964" filterUnits="userSpaceOnUse" color-interpolation-filters="sRGB">
<feFlood flood-opacity="0" result="BackgroundImageFix"/>
<feGaussianBlur in="BackgroundImageFix" stdDeviation="3.5"/>
<feComposite in2="SourceAlpha" operator="in" result="effect1_backgroundBlur_1_514"/>
<feBlend mode="normal" in="SourceGraphic" in2="effect1_backgroundBlur_1_514" result="shape"/>
<feColorMatrix in="SourceAlpha" type="matrix" values="0 0 0 0 0 0 0 0 0 0 0 0 0 0 0 0 0 0 127 0" result="hardAlpha"/>
<feOffset dy="1.16667"/>
<feGaussianBlur stdDeviation="1.75"/>
<feComposite in2="hardAlpha" operator="arithmetic" k2="-1" k3="1"/>
<feColorMatrix type="matrix" values="0 0 0 0 1 0 0 0 0 1 0 0 0 0 1 0 0 0 0.4 0"/>
<feBlend mode="normal" in2="shape" result="effect2_innerShadow_1_514"/>
</filter>
<filter id="filter8_bi_1_514" x="24" y="16.0695" width="19.25" height="22.8964" filterUnits="userSpaceOnUse" color-interpolation-filters="sRGB">
<feFlood flood-opacity="0" result="BackgroundImageFix"/>
<feGaussianBlur in="BackgroundImageFix" stdDeviation="3.5"/>
<feComposite in2="SourceAlpha" operator="in" result="effect1_backgroundBlur_1_514"/>
<feBlend mode="normal" in="SourceGraphic" in2="effect1_backgroundBlur_1_514" result="shape"/>
<feColorMatrix in="SourceAlpha" type="matrix" values="0 0 0 0 0 0 0 0 0 0 0 0 0 0 0 0 0 0 127 0" result="hardAlpha"/>
<feOffset dy="1.16667"/>
<feGaussianBlur stdDeviation="1.75"/>
<feComposite in2="hardAlpha" operator="arithmetic" k2="-1" k3="1"/>
<feColorMatrix type="matrix" values="0 0 0 0 1 0 0 0 0 1 0 0 0 0 1 0 0 0 0.4 0"/>
<feBlend mode="normal" in2="shape" result="effect2_innerShadow_1_514"/>
</filter>
<filter id="filter9_bi_1_514" x="27.5735" y="18.2741" width="24.353" height="20.3166" filterUnits="userSpaceOnUse" color-interpolation-filters="sRGB">
<feFlood flood-opacity="0" result="BackgroundImageFix"/>
<feGaussianBlur in="BackgroundImageFix" stdDeviation="3.5"/>
<feComposite in2="SourceAlpha" operator="in" result="effect1_backgroundBlur_1_514"/>
<feBlend mode="normal" in="SourceGraphic" in2="effect1_backgroundBlur_1_514" result="shape"/>
<feColorMatrix in="SourceAlpha" type="matrix" values="0 0 0 0 0 0 0 0 0 0 0 0 0 0 0 0 0 0 127 0" result="hardAlpha"/>
<feOffset dy="1.16667"/>
<feGaussianBlur stdDeviation="1.75"/>
<feComposite in2="hardAlpha" operator="arithmetic" k2="-1" k3="1"/>
<feColorMatrix type="matrix" values="0 0 0 0 1 0 0 0 0 1 0 0 0 0 1 0 0 0 0.4 0"/>
<feBlend mode="normal" in2="shape" result="effect2_innerShadow_1_514"/>
</filter>
<filter id="filter10_bi_1_514" x="27.5" y="21.4272" width="19.25" height="22.897" filterUnits="userSpaceOnUse" color-interpolation-filters="sRGB">
<feFlood flood-opacity="0" result="BackgroundImageFix"/>
<feGaussianBlur in="BackgroundImageFix" stdDeviation="3.5"/>
<feComposite in2="SourceAlpha" operator="in" result="effect1_backgroundBlur_1_514"/>
<feBlend mode="normal" in="SourceGraphic" in2="effect1_backgroundBlur_1_514" result="shape"/>
<feColorMatrix in="SourceAlpha" type="matrix" values="0 0 0 0 0 0 0 0 0 0 0 0 0 0 0 0 0 0 127 0" result="hardAlpha"/>
<feOffset dy="1.16667"/>
<feGaussianBlur stdDeviation="1.75"/>
<feComposite in2="hardAlpha" operator="arithmetic" k2="-1" k3="1"/>
<feColorMatrix type="matrix" values="0 0 0 0 1 0 0 0 0 1 0 0 0 0 1 0 0 0 0.4 0"/>
<feBlend mode="normal" in2="shape" result="effect2_innerShadow_1_514"/>
</filter>
<filter id="filter11_bi_1_514" x="32.75" y="21.4272" width="19.25" height="22.897" filterUnits="userSpaceOnUse" color-interpolation-filters="sRGB">
<feFlood flood-opacity="0" result="BackgroundImageFix"/>
<feGaussianBlur in="BackgroundImageFix" stdDeviation="3.5"/>
<feComposite in2="SourceAlpha" operator="in" result="effect1_backgroundBlur_1_514"/>
<feBlend mode="normal" in="SourceGraphic" in2="effect1_backgroundBlur_1_514" result="shape"/>
<feColorMatrix in="SourceAlpha" type="matrix" values="0 0 0 0 0 0 0 0 0 0 0 0 0 0 0 0 0 0 127 0" result="hardAlpha"/>
<feOffset dy="1.16667"/>
<feGaussianBlur stdDeviation="1.75"/>
<feComposite in2="hardAlpha" operator="arithmetic" k2="-1" k3="1"/>
<feColorMatrix type="matrix" values="0 0 0 0 1 0 0 0 0 1 0 0 0 0 1 0 0 0 0.4 0"/>
<feBlend mode="normal" in2="shape" result="effect2_innerShadow_1_514"/>
</filter>
<filter id="filter12_bi_1_514" x="10.0735" y="18.2741" width="24.353" height="20.3166" filterUnits="userSpaceOnUse" color-interpolation-filters="sRGB">
<feFlood flood-opacity="0" result="BackgroundImageFix"/>
<feGaussianBlur in="BackgroundImageFix" stdDeviation="3.5"/>
<feComposite in2="SourceAlpha" operator="in" result="effect1_backgroundBlur_1_514"/>
<feBlend mode="normal" in="SourceGraphic" in2="effect1_backgroundBlur_1_514" result="shape"/>
<feColorMatrix in="SourceAlpha" type="matrix" values="0 0 0 0 0 0 0 0 0 0 0 0 0 0 0 0 0 0 127 0" result="hardAlpha"/>
<feOffset dy="1.16667"/>
<feGaussianBlur stdDeviation="1.75"/>
<feComposite in2="hardAlpha" operator="arithmetic" k2="-1" k3="1"/>
<feColorMatrix type="matrix" values="0 0 0 0 1 0 0 0 0 1 0 0 0 0 1 0 0 0 0.4 0"/>
<feBlend mode="normal" in2="shape" result="effect2_innerShadow_1_514"/>
</filter>
<filter id="filter13_bi_1_514" x="10" y="21.4272" width="19.25" height="22.897" filterUnits="userSpaceOnUse" color-interpolation-filters="sRGB">
<feFlood flood-opacity="0" result="BackgroundImageFix"/>
<feGaussianBlur in="BackgroundImageFix" stdDeviation="3.5"/>
<feComposite in2="SourceAlpha" operator="in" result="effect1_backgroundBlur_1_514"/>
<feBlend mode="normal" in="SourceGraphic" in2="effect1_backgroundBlur_1_514" result="shape"/>
<feColorMatrix in="SourceAlpha" type="matrix" values="0 0 0 0 0 0 0 0 0 0 0 0 0 0 0 0 0 0 127 0" result="hardAlpha"/>
<feOffset dy="1.16667"/>
<feGaussianBlur stdDeviation="1.75"/>
<feComposite in2="hardAlpha" operator="arithmetic" k2="-1" k3="1"/>
<feColorMatrix type="matrix" values="0 0 0 0 1 0 0 0 0 1 0 0 0 0 1 0 0 0 0.4 0"/>
<feBlend mode="normal" in2="shape" result="effect2_innerShadow_1_514"/>
</filter>
<filter id="filter14_bi_1_514" x="15.25" y="21.4272" width="19.25" height="22.897" filterUnits="userSpaceOnUse" color-interpolation-filters="sRGB">
<feFlood flood-opacity="0" result="BackgroundImageFix"/>
<feGaussianBlur in="BackgroundImageFix" stdDeviation="3.5"/>
<feComposite in2="SourceAlpha" operator="in" result="effect1_backgroundBlur_1_514"/>
<feBlend mode="normal" in="SourceGraphic" in2="effect1_backgroundBlur_1_514" result="shape"/>
<feColorMatrix in="SourceAlpha" type="matrix" values="0 0 0 0 0 0 0 0 0 0 0 0 0 0 0 0 0 0 127 0" result="hardAlpha"/>
<feOffset dy="1.16667"/>
<feGaussianBlur stdDeviation="1.75"/>
<feComposite in2="hardAlpha" operator="arithmetic" k2="-1" k3="1"/>
<feColorMatrix type="matrix" values="0 0 0 0 1 0 0 0 0 1 0 0 0 0 1 0 0 0 0.4 0"/>
<feBlend mode="normal" in2="shape" result="effect2_innerShadow_1_514"/>
</filter>
<filter id="filter15_bi_1_514" x="18.8235" y="24.1006" width="24.353" height="20.316" filterUnits="userSpaceOnUse" color-interpolation-filters="sRGB">
<feFlood flood-opacity="0" result="BackgroundImageFix"/>
<feGaussianBlur in="BackgroundImageFix" stdDeviation="3.5"/>
<feComposite in2="SourceAlpha" operator="in" result="effect1_backgroundBlur_1_514"/>
<feBlend mode="normal" in="SourceGraphic" in2="effect1_backgroundBlur_1_514" result="shape"/>
<feColorMatrix in="SourceAlpha" type="matrix" values="0 0 0 0 0 0 0 0 0 0 0 0 0 0 0 0 0 0 127 0" result="hardAlpha"/>
<feOffset dy="1.16667"/>
<feGaussianBlur stdDeviation="1.75"/>
<feComposite in2="hardAlpha" operator="arithmetic" k2="-1" k3="1"/>
<feColorMatrix type="matrix" values="0 0 0 0 1 0 0 0 0 1 0 0 0 0 1 0 0 0 0.4 0"/>
<feBlend mode="normal" in2="shape" result="effect2_innerShadow_1_514"/>
</filter>
<filter id="filter16_bi_1_514" x="18.75" y="27.2531" width="19.25" height="22.8964" filterUnits="userSpaceOnUse" color-interpolation-filters="sRGB">
<feFlood flood-opacity="0" result="BackgroundImageFix"/>
<feGaussianBlur in="BackgroundImageFix" stdDeviation="3.5"/>
<feComposite in2="SourceAlpha" operator="in" result="effect1_backgroundBlur_1_514"/>
<feBlend mode="normal" in="SourceGraphic" in2="effect1_backgroundBlur_1_514" result="shape"/>
<feColorMatrix in="SourceAlpha" type="matrix" values="0 0 0 0 0 0 0 0 0 0 0 0 0 0 0 0 0 0 127 0" result="hardAlpha"/>
<feOffset dy="1.16667"/>
<feGaussianBlur stdDeviation="1.75"/>
<feComposite in2="hardAlpha" operator="arithmetic" k2="-1" k3="1"/>
<feColorMatrix type="matrix" values="0 0 0 0 1 0 0 0 0 1 0 0 0 0 1 0 0 0 0.4 0"/>
<feBlend mode="normal" in2="shape" result="effect2_innerShadow_1_514"/>
</filter>
<filter id="filter17_bi_1_514" x="24" y="27.2531" width="19.25" height="22.8964" filterUnits="userSpaceOnUse" color-interpolation-filters="sRGB">
<feFlood flood-opacity="0" result="BackgroundImageFix"/>
<feGaussianBlur in="BackgroundImageFix" stdDeviation="3.5"/>
<feComposite in2="SourceAlpha" operator="in" result="effect1_backgroundBlur_1_514"/>
<feBlend mode="normal" in="SourceGraphic" in2="effect1_backgroundBlur_1_514" result="shape"/>
<feColorMatrix in="SourceAlpha" type="matrix" values="0 0 0 0 0 0 0 0 0 0 0 0 0 0 0 0 0 0 127 0" result="hardAlpha"/>
<feOffset dy="1.16667"/>
<feGaussianBlur stdDeviation="1.75"/>
<feComposite in2="hardAlpha" operator="arithmetic" k2="-1" k3="1"/>
<feColorMatrix type="matrix" values="0 0 0 0 1 0 0 0 0 1 0 0 0 0 1 0 0 0 0.4 0"/>
<feBlend mode="normal" in2="shape" result="effect2_innerShadow_1_514"/>
</filter>
<radialGradient id="paint0_radial_1_514" cx="0" cy="0" r="1" gradientUnits="userSpaceOnUse" gradientTransform="translate(1 1) rotate(45) scale(84.8528)">
<stop stop-color="#FAFAFA"/>
<stop offset="1" stop-color="#F7F7F7" stop-opacity="0"/>
</radialGradient>
<linearGradient id="paint1_linear_1_514" x1="0.999999" y1="59.5" x2="61" y2="1" gradientUnits="userSpaceOnUse">
<stop stop-color="white"/>
<stop offset="1" stop-color="white" stop-opacity="0"/>
</linearGradient>
<linearGradient id="paint2_linear_1_514" x1="18.0159" y1="26.4402" x2="28.1388" y2="28.6799" gradientUnits="userSpaceOnUse">
<stop stop-color="#75A5FF"/>
<stop offset="0.703125" stop-color="#2339FF"/>
</linearGradient>
<linearGradient id="paint3_linear_1_514" x1="18.0159" y1="26.4402" x2="28.1388" y2="28.6799" gradientUnits="userSpaceOnUse">
<stop stop-color="#75A5FF"/>
<stop offset="0.703125" stop-color="#2339FF"/>
</linearGradient>
<linearGradient id="paint4_linear_1_514" x1="18.0159" y1="26.4402" x2="28.1388" y2="28.6799" gradientUnits="userSpaceOnUse">
<stop stop-color="#75A5FF"/>
<stop offset="0.703125" stop-color="#2339FF"/>
</linearGradient>
<linearGradient id="paint5_linear_1_514" x1="18.0163" y1="26.4402" x2="28.1392" y2="28.6799" gradientUnits="userSpaceOnUse">
<stop stop-color="#75A5FF"/>
<stop offset="0.703125" stop-color="#2339FF"/>
</linearGradient>
<linearGradient id="paint6_linear_1_514" x1="18.0163" y1="26.4402" x2="28.1392" y2="28.6799" gradientUnits="userSpaceOnUse">
<stop stop-color="#75A5FF"/>
<stop offset="0.703125" stop-color="#2339FF"/>
</linearGradient>
<linearGradient id="paint7_linear_1_514" x1="18.0163" y1="26.4402" x2="28.1392" y2="28.6799" gradientUnits="userSpaceOnUse">
<stop stop-color="#75A5FF"/>
<stop offset="0.703125" stop-color="#2339FF"/>
</linearGradient>
<linearGradient id="paint8_linear_1_514" x1="26.7663" y1="20.829" x2="36.8892" y2="23.0688" gradientUnits="userSpaceOnUse">
<stop stop-color="#75A5FF"/>
<stop offset="0.703125" stop-color="#2339FF"/>
</linearGradient>
<linearGradient id="paint9_linear_1_514" x1="26.7663" y1="20.829" x2="36.8892" y2="23.0688" gradientUnits="userSpaceOnUse">
<stop stop-color="#75A5FF"/>
<stop offset="0.703125" stop-color="#2339FF"/>
</linearGradient>
<linearGradient id="paint10_linear_1_514" x1="26.7663" y1="20.829" x2="36.8892" y2="23.0688" gradientUnits="userSpaceOnUse">
<stop stop-color="#75A5FF"/>
<stop offset="0.703125" stop-color="#2339FF"/>
</linearGradient>
<linearGradient id="paint11_linear_1_514" x1="35.5163" y1="26.44" x2="45.6392" y2="28.6798" gradientUnits="userSpaceOnUse">
<stop stop-color="#75A5FF"/>
<stop offset="0.703125" stop-color="#2339FF"/>
</linearGradient>
<linearGradient id="paint12_linear_1_514" x1="35.5163" y1="26.44" x2="45.6392" y2="28.6798" gradientUnits="userSpaceOnUse">
<stop stop-color="#75A5FF"/>
<stop offset="0.703125" stop-color="#2339FF"/>
</linearGradient>
<linearGradient id="paint13_linear_1_514" x1="35.5163" y1="26.44" x2="45.6392" y2="28.6798" gradientUnits="userSpaceOnUse">
<stop stop-color="#75A5FF"/>
<stop offset="0.703125" stop-color="#2339FF"/>
</linearGradient>
<linearGradient id="paint14_linear_1_514" x1="26.7661" y1="32.8754" x2="36.889" y2="35.1151" gradientUnits="userSpaceOnUse">
<stop stop-color="#75A5FF"/>
<stop offset="0.703125" stop-color="#2339FF"/>
</linearGradient>
<linearGradient id="paint15_linear_1_514" x1="26.7661" y1="32.8754" x2="36.889" y2="35.1151" gradientUnits="userSpaceOnUse">
<stop stop-color="#75A5FF"/>
<stop offset="0.703125" stop-color="#2339FF"/>
</linearGradient>
<linearGradient id="paint16_linear_1_514" x1="26.7661" y1="32.8754" x2="36.889" y2="35.1151" gradientUnits="userSpaceOnUse">
<stop stop-color="#75A5FF"/>
<stop offset="0.703125" stop-color="#2339FF"/>
</linearGradient>
<linearGradient id="paint17_linear_1_514" x1="25.8235" y1="19.917" x2="36.8885" y2="24.5224" gradientUnits="userSpaceOnUse">
<stop stop-color="#83E9FF"/>
<stop offset="0.453125" stop-color="#85A0FF"/>
</linearGradient>
<linearGradient id="paint18_linear_1_514" x1="26.147" y1="20.2041" x2="36.1765" y2="20.2041" gradientUnits="userSpaceOnUse">
<stop stop-color="#3CDEB6"/>
<stop offset="0.65625" stop-color="#364AFF"/>
</linearGradient>
<linearGradient id="paint19_linear_1_514" x1="25.75" y1="23.0695" x2="32.1885" y2="24.0343" gradientUnits="userSpaceOnUse">
<stop stop-color="#83E9FF"/>
<stop offset="0.453125" stop-color="#85A0FF"/>
</linearGradient>
<linearGradient id="paint20_linear_1_514" x1="25.9141" y1="23.4739" x2="31" y2="23.4739" gradientUnits="userSpaceOnUse">
<stop stop-color="#3CDEB6"/>
<stop offset="0.65625" stop-color="#364AFF"/>
</linearGradient>
<linearGradient id="paint21_linear_1_514" x1="31" y1="23.0695" x2="37.4385" y2="24.0343" gradientUnits="userSpaceOnUse">
<stop stop-color="#83E9FF"/>
<stop offset="0.453125" stop-color="#85A0FF"/>
</linearGradient>
<linearGradient id="paint22_linear_1_514" x1="31.1641" y1="23.4739" x2="36.25" y2="23.4739" gradientUnits="userSpaceOnUse">
<stop stop-color="#3CDEB6"/>
<stop offset="0.65625" stop-color="#364AFF"/>
</linearGradient>
<linearGradient id="paint23_linear_1_514" x1="34.5735" y1="25.2741" x2="45.6388" y2="29.8792" gradientUnits="userSpaceOnUse">
<stop stop-color="#83E9FF"/>
<stop offset="0.453125" stop-color="#85A0FF"/>
</linearGradient>
<linearGradient id="paint24_linear_1_514" x1="34.897" y1="25.5612" x2="44.9265" y2="25.5612" gradientUnits="userSpaceOnUse">
<stop stop-color="#3CDEB6"/>
<stop offset="0.65625" stop-color="#364AFF"/>
</linearGradient>
<linearGradient id="paint25_linear_1_514" x1="34.5" y1="28.4272" x2="40.9385" y2="29.3919" gradientUnits="userSpaceOnUse">
<stop stop-color="#83E9FF"/>
<stop offset="0.453125" stop-color="#85A0FF"/>
</linearGradient>
<linearGradient id="paint26_linear_1_514" x1="34.6641" y1="28.8316" x2="39.75" y2="28.8316" gradientUnits="userSpaceOnUse">
<stop stop-color="#3CDEB6"/>
<stop offset="0.65625" stop-color="#364AFF"/>
</linearGradient>
<linearGradient id="paint27_linear_1_514" x1="39.75" y1="28.4272" x2="46.1885" y2="29.3919" gradientUnits="userSpaceOnUse">
<stop stop-color="#83E9FF"/>
<stop offset="0.453125" stop-color="#85A0FF"/>
</linearGradient>
<linearGradient id="paint28_linear_1_514" x1="39.9141" y1="28.8316" x2="45" y2="28.8316" gradientUnits="userSpaceOnUse">
<stop stop-color="#3CDEB6"/>
<stop offset="0.65625" stop-color="#364AFF"/>
</linearGradient>
<linearGradient id="paint29_linear_1_514" x1="17.0735" y1="25.2741" x2="28.1388" y2="29.8792" gradientUnits="userSpaceOnUse">
<stop stop-color="#83E9FF"/>
<stop offset="0.453125" stop-color="#85A0FF"/>
</linearGradient>
<linearGradient id="paint30_linear_1_514" x1="17.397" y1="25.5612" x2="27.4265" y2="25.5612" gradientUnits="userSpaceOnUse">
<stop stop-color="#3CDEB6"/>
<stop offset="0.65625" stop-color="#364AFF"/>
</linearGradient>
<linearGradient id="paint31_linear_1_514" x1="17" y1="28.4272" x2="23.4385" y2="29.3919" gradientUnits="userSpaceOnUse">
<stop stop-color="#83E9FF"/>
<stop offset="0.453125" stop-color="#85A0FF"/>
</linearGradient>
<linearGradient id="paint32_linear_1_514" x1="17.1641" y1="28.8316" x2="22.25" y2="28.8316" gradientUnits="userSpaceOnUse">
<stop stop-color="#3CDEB6"/>
<stop offset="0.65625" stop-color="#364AFF"/>
</linearGradient>
<linearGradient id="paint33_linear_1_514" x1="22.25" y1="28.4272" x2="28.6885" y2="29.3919" gradientUnits="userSpaceOnUse">
<stop stop-color="#83E9FF"/>
<stop offset="0.453125" stop-color="#85A0FF"/>
</linearGradient>
<linearGradient id="paint34_linear_1_514" x1="22.4141" y1="28.8316" x2="27.5" y2="28.8316" gradientUnits="userSpaceOnUse">
<stop stop-color="#3CDEB6"/>
<stop offset="0.65625" stop-color="#364AFF"/>
</linearGradient>
<linearGradient id="paint35_linear_1_514" x1="25.8235" y1="31.1006" x2="36.8885" y2="35.706" gradientUnits="userSpaceOnUse">
<stop stop-color="#83E9FF"/>
<stop offset="0.453125" stop-color="#85A0FF"/>
</linearGradient>
<linearGradient id="paint36_linear_1_514" x1="26.147" y1="31.3877" x2="36.1765" y2="31.3877" gradientUnits="userSpaceOnUse">
<stop stop-color="#3CDEB6"/>
<stop offset="0.65625" stop-color="#364AFF"/>
</linearGradient>
<linearGradient id="paint37_linear_1_514" x1="25.75" y1="34.2531" x2="32.1885" y2="35.2179" gradientUnits="userSpaceOnUse">
<stop stop-color="#83E9FF"/>
<stop offset="0.453125" stop-color="#85A0FF"/>
</linearGradient>
<linearGradient id="paint38_linear_1_514" x1="25.9141" y1="34.6575" x2="31" y2="34.6575" gradientUnits="userSpaceOnUse">
<stop stop-color="#3CDEB6"/>
<stop offset="0.65625" stop-color="#364AFF"/>
</linearGradient>
<linearGradient id="paint39_linear_1_514" x1="31" y1="34.2531" x2="37.4385" y2="35.2179" gradientUnits="userSpaceOnUse">
<stop stop-color="#83E9FF"/>
<stop offset="0.453125" stop-color="#85A0FF"/>
</linearGradient>
<linearGradient id="paint40_linear_1_514" x1="31.1641" y1="34.6575" x2="36.25" y2="34.6575" gradientUnits="userSpaceOnUse">
<stop stop-color="#3CDEB6"/>
<stop offset="0.65625" stop-color="#364AFF"/>
</linearGradient>
</defs>
</svg>
