<svg width="32" height="23" viewBox="0 0 32 23" fill="none" xmlns="http://www.w3.org/2000/svg">
<g clip-path="url(#clip0_1_496)">
<path d="M10.3705 23C9.07683 22.593 7.7561 22.2649 6.57086 21.5636C2.06239 18.8878 -0.338035 15.0024 0.038503 9.81429C0.397925 4.85293 4.27883 0.897073 10.148 1.46743C11.2943 1.59562 12.4549 1.44426 13.5283 1.02663C14.4767 0.657666 15.4708 0.415442 16.5149 0.604151C16.7245 0.643583 16.977 0.642175 17.0369 0.885807C17.0968 1.12944 16.8215 1.16746 16.686 1.26604C15.6448 2.05045 15.6463 2.97147 16.7217 3.68687C18.1266 4.62197 19.2747 5.8345 20.4628 7.00478C21.1354 7.69527 21.913 8.2778 22.7677 8.73133C23.2384 8.97214 23.4808 8.92144 23.6976 8.35954C23.9686 7.6554 23.8645 7.25686 23.2426 6.77945C21.3528 5.32892 20.7566 2.57433 21.785 0.464732C21.8848 0.259123 21.9647 0 22.2571 0C22.5837 0 22.685 0.250674 22.7449 0.509797C22.9574 1.36462 23.4823 1.91807 24.3209 2.25465C24.7719 2.41654 25.1708 2.69446 25.4765 3.05966C25.7822 3.42486 25.9835 3.86408 26.0595 4.33186C26.9766 3.42634 28.0563 3.20524 29.2202 3.18693C29.959 3.17848 30.491 2.73769 30.9631 2.22085C31.1499 2.01525 31.3439 1.7688 31.6762 1.95751C31.9615 2.11805 32.0185 2.39407 31.9843 2.68418C31.759 4.56282 31.11 6.20487 29.3243 7.19771C28.7287 7.53348 28.0746 7.75607 27.396 7.85397C27.0023 7.9103 26.8454 8.07788 26.8255 8.4891C26.6714 11.9704 25.4947 15.0686 23.0772 17.6612C22.24 18.5611 22.2314 18.5414 23.3624 18.9751C23.8474 19.1596 24.3152 19.3849 24.7887 19.5962C25.074 19.7229 25.3764 19.8342 25.3336 20.2313C25.3171 20.408 25.2429 20.5747 25.1223 20.7062C25.0017 20.8378 24.8411 20.9271 24.6646 20.9608C23.8855 21.174 23.0729 21.2418 22.2685 21.1608C21.658 21.1002 21.0276 21.0495 20.4585 20.8496C20.0007 20.6876 19.7069 20.7806 19.3731 21.0397C18.1317 22.0201 16.6458 22.6525 15.0715 22.8704C15.0173 22.8775 14.9716 22.9521 14.9289 22.9944L10.3705 23ZM19.279 20.3637C17.064 18.7878 15.6092 16.6092 14.133 14.4489C12.9463 12.7139 11.5429 11.1916 9.71153 10.0931C7.7019 8.88624 5.55393 8.09901 3.13781 8.30884C2.12372 8.39897 2.03957 8.52008 2.13085 9.54672C2.399 12.5393 3.51149 15.1925 5.64663 17.3514C6.72633 18.4484 7.91299 19.4807 9.5689 19.7159C10.0667 19.7849 10.5331 19.7638 10.8868 19.4004C11.2904 18.9864 10.7941 18.6963 10.6686 18.3527C10.4917 17.8837 10.0681 17.3401 10.5102 16.9444C10.9524 16.5487 11.4958 16.9669 11.9365 17.212C13.0798 17.8696 14.1673 18.6175 15.1884 19.4483C16.4022 20.3989 17.78 20.5609 19.279 20.3637ZM18.3263 11.5225C18.2877 12.9928 19.6099 13.9082 20.8536 13.2843C21.213 13.1026 21.3514 12.8984 21.166 12.5126C20.6909 11.4684 19.9898 10.5396 19.1121 9.79176C18.5744 9.34674 17.954 9.04396 17.2209 9.20873C16.9214 9.27633 16.5933 9.4242 16.6119 9.79317C16.629 10.1227 16.9499 10.1143 17.2066 10.1678C18.1979 10.3734 18.3534 10.5705 18.3263 11.5225ZM17.5532 11.1395C17.4862 10.948 17.3678 10.7649 17.1253 10.7959C17.0779 10.7991 17.0317 10.8119 16.9895 10.8334C16.9472 10.8549 16.9099 10.8847 16.8797 10.921C16.8496 10.9572 16.8272 10.9992 16.814 11.0443C16.8008 11.0893 16.7971 11.1366 16.803 11.1831C16.8272 11.4141 16.9599 11.569 17.2309 11.5366C17.4348 11.5099 17.5432 11.3718 17.5532 11.1395Z" fill="white"/>
</g>
<defs>
<clipPath id="clip0_1_496">
<rect width="32" height="23" fill="white"/>
</clipPath>
</defs>
</svg>
