<svg width="17" height="16" viewBox="0 0 17 16" fill="none" xmlns="http://www.w3.org/2000/svg">
<path fill-rule="evenodd" clip-rule="evenodd" d="M8.57256 13.3928C6.49287 13.3928 4.71625 13.0782 4.71625 11.8185C4.71625 10.5587 6.48132 9.46204 8.57256 9.46204C10.6522 9.46204 12.4289 10.5484 12.4289 11.8075C12.4289 13.0667 10.6638 13.3928 8.57256 13.3928Z" stroke="white" stroke-width="1.23279" stroke-linecap="round" stroke-linejoin="round"/>
<path fill-rule="evenodd" clip-rule="evenodd" d="M8.57271 7.66576C9.93777 7.66576 11.0447 6.55946 11.0447 5.19441C11.0447 3.82935 9.93777 2.72241 8.57271 2.72241C7.20766 2.72241 6.10072 3.82935 6.10072 5.19441C6.09687 6.55432 7.19482 7.66126 8.55538 7.66576H8.57271Z" stroke="white" stroke-width="1.23279" stroke-linecap="round" stroke-linejoin="round"/>
<path d="M12.6751 6.98701C13.4693 6.77448 14.0549 6.05022 14.0549 5.18791C14.0549 4.28836 13.4173 3.53713 12.5685 3.36377" stroke="white" stroke-width="1.23279" stroke-linecap="round" stroke-linejoin="round"/>
<path d="M13.0481 9.01135C14.1743 9.01135 15.1361 9.77478 15.1361 10.4567C15.1361 10.858 14.8042 11.2952 14.3008 11.4134" stroke="white" stroke-width="1.23279" stroke-linecap="round" stroke-linejoin="round"/>
<path d="M4.47013 6.98701C3.67523 6.77448 3.08966 6.05022 3.08966 5.18791C3.08966 4.28836 3.72788 3.53713 4.57607 3.36377" stroke="white" stroke-width="1.23279" stroke-linecap="round" stroke-linejoin="round"/>
<path d="M4.0967 9.01135C2.9705 9.01135 2.00867 9.77478 2.00867 10.4567C2.00867 10.858 2.34062 11.2952 2.84465 11.4134" stroke="white" stroke-width="1.23279" stroke-linecap="round" stroke-linejoin="round"/>
</svg>
